<svg width="25" height="12" viewBox="0 0 25 12" fill="none" xmlns="http://www.w3.org/2000/svg">
<g opacity="0.35">
<path opacity="0.35" d="M3.33888 0.50293H20.0049C21.2017 0.50293 22.1719 1.47313 22.1719 2.66993V8.66893C22.1719 9.86573 21.2017 10.8359 20.0049 10.8359H3.33888C2.14207 10.8359 1.17188 9.86573 1.17188 8.66893V2.66993C1.17188 1.47313 2.14207 0.50293 3.33888 0.50293Z" stroke="white"/>
<path opacity="0.35" d="M20.0049 0.50293H3.33888C2.14207 0.50293 1.17188 1.47313 1.17188 2.66993V8.66893C1.17188 9.86573 2.14207 10.8359 3.33888 10.8359H20.0049C21.2017 10.8359 22.1719 9.86573 22.1719 8.66893V2.66993C22.1719 1.47313 21.2017 0.50293 20.0049 0.50293Z" stroke="#333333" stroke-miterlimit="10"/>
</g>
<path opacity="0.4" d="M23.6719 3.66992V7.66992C24.0655 7.50422 24.4014 7.22606 24.6376 6.8703C24.8739 6.51453 24.9999 6.09697 24.9999 5.66992C24.9999 5.24287 24.8739 4.82531 24.6376 4.46955C24.4014 4.11378 24.0655 3.83563 23.6719 3.66992" fill="#333333"/>
<path d="M19.3389 2.00293H4.00487C3.26868 2.00293 2.67188 2.59973 2.67188 3.33593V8.00293C2.67188 8.73913 3.26868 9.33593 4.00487 9.33593H19.3389C20.0751 9.33593 20.6719 8.73913 20.6719 8.00293V3.33593C20.6719 2.59973 20.0751 2.00293 19.3389 2.00293Z" fill="#333333"/>
</svg>
