<svg width="18" height="12" viewBox="0 0 18 12" fill="none" xmlns="http://www.w3.org/2000/svg">
<path d="M16.3389 11.0039H15.3389C15.0737 11.0039 14.8193 10.8986 14.6318 10.711C14.4442 10.5235 14.3389 10.2691 14.3389 10.0039V1.33691C14.3389 1.0717 14.4442 0.817344 14.6318 0.629807C14.8193 0.442271 15.0737 0.336914 15.3389 0.336914L16.3389 0.336914C16.6041 0.336914 16.8584 0.442271 17.046 0.629807C17.2335 0.817344 17.3389 1.0717 17.3389 1.33691V10.0039C17.3389 10.2691 17.2335 10.5235 17.046 10.711C16.8584 10.8986 16.6041 11.0039 16.3389 11.0039ZM11.6719 11.0039H10.6719C10.4067 11.0039 10.1523 10.8986 9.96476 10.711C9.77722 10.5235 9.67187 10.2691 9.67187 10.0039V3.67091C9.67187 3.4057 9.77722 3.15134 9.96476 2.96381C10.1523 2.77627 10.4067 2.67091 10.6719 2.67091H11.6719C11.9371 2.67091 12.1914 2.77627 12.379 2.96381C12.5665 3.15134 12.6719 3.4057 12.6719 3.67091V10.0039C12.6719 10.269 12.5666 10.5232 12.3793 10.7107C12.192 10.8982 11.9379 11.0036 11.6729 11.0039H11.6719ZM7.00487 11.0039H6.00487C5.73965 11.0039 5.4853 10.8986 5.29776 10.711C5.11022 10.5235 5.00487 10.2691 5.00487 10.0039V6.00391C5.00487 5.7387 5.11022 5.48434 5.29776 5.29681C5.4853 5.10927 5.73965 5.00391 6.00487 5.00391H7.00487C7.27008 5.00391 7.52444 5.10927 7.71197 5.29681C7.89951 5.48434 8.00487 5.7387 8.00487 6.00391V10.0039C8.00487 10.2691 7.89951 10.5235 7.71197 10.711C7.52444 10.8986 7.27008 11.0039 7.00487 11.0039ZM2.33887 11.0039H1.33887C1.07365 11.0039 0.819297 10.8986 0.63176 10.711C0.444224 10.5235 0.338867 10.2691 0.338867 10.0039V8.00391C0.338867 7.7387 0.444224 7.48434 0.63176 7.29681C0.819297 7.10927 1.07365 7.00391 1.33887 7.00391H2.33887C2.60408 7.00391 2.85844 7.10927 3.04597 7.29681C3.23351 7.48434 3.33887 7.7387 3.33887 8.00391V10.0039C3.33887 10.2691 3.23351 10.5235 3.04597 10.711C2.85844 10.8986 2.60408 11.0039 2.33887 11.0039Z" fill="#333333"/>
</svg>
