<svg width="16" height="17" viewBox="0 0 16 17" fill="none" xmlns="http://www.w3.org/2000/svg">
<path d="M5.5895 2.15274L5.0159 2.32554C4.50517 2.47956 4.04905 2.77628 3.70126 3.18077C3.35346 3.58526 3.12844 4.08069 3.0527 4.60874C2.8151 6.26314 3.3463 8.19754 4.6271 10.4159C5.9047 12.6287 7.3111 14.0543 8.8591 14.6783C9.35648 14.8788 9.90097 14.9322 10.4278 14.8322C10.9547 14.7323 11.4417 14.4831 11.8311 14.1143L12.2647 13.7031C12.5463 13.4367 12.7215 13.077 12.7578 12.6911C12.7942 12.3051 12.6892 11.9191 12.4623 11.6047L11.3775 10.1007C11.2308 9.8977 11.0243 9.74563 10.7869 9.66587C10.5495 9.5861 10.293 9.58263 10.0535 9.65594L8.4127 10.1575L8.3703 10.1655C8.1895 10.1919 7.7719 9.80074 7.2519 8.89994C6.7079 7.95754 6.5959 7.40634 6.7455 7.26394L7.5799 6.48554C7.88503 6.20111 8.09347 5.8283 8.17596 5.4194C8.25846 5.0105 8.21088 4.58603 8.0399 4.20554L7.5103 3.02874C7.35105 2.67462 7.06846 2.39048 6.7152 2.22931C6.36195 2.06814 5.96214 2.04092 5.5903 2.15274H5.5895ZM6.7815 3.35674L7.3095 4.53354C7.41233 4.76173 7.44109 5.01639 7.39173 5.26176C7.34236 5.50713 7.21737 5.73087 7.0343 5.90154L6.1975 6.68074C5.6623 7.18794 5.8399 8.05354 6.5599 9.29994C7.2367 10.4727 7.8543 11.0519 8.5183 10.9511L8.6175 10.9303L10.2879 10.4207C10.3677 10.3962 10.4533 10.3973 10.5325 10.4238C10.6117 10.4504 10.6806 10.5011 10.7295 10.5687L11.8143 12.0727C11.9279 12.2299 11.9805 12.423 11.9624 12.616C11.9443 12.8091 11.8567 12.989 11.7159 13.1223L11.2815 13.5335C11.0034 13.7968 10.6555 13.9746 10.2793 14.0459C9.90307 14.1173 9.51427 14.0791 9.1591 13.9359C7.8007 13.3887 6.5167 12.0871 5.3207 10.0159C4.1215 7.93994 3.6359 6.17434 3.8447 4.72234C3.89875 4.34509 4.05946 3.99113 4.30792 3.70214C4.55637 3.41315 4.88222 3.20116 5.2471 3.09114L5.8207 2.91834C6.00667 2.86246 6.20661 2.87613 6.38325 2.95679C6.55988 3.03745 6.70115 3.17961 6.7807 3.35674H6.7815Z" fill="black"/>
</svg>
