<svg width="90" height="114" viewBox="0 0 90 114" fill="none" xmlns="http://www.w3.org/2000/svg">
<path d="M24.375 7.5H65.625C66.2072 7.5 66.7813 7.63554 67.3021 7.8959C67.8228 8.15625 68.2757 8.53427 68.625 9L78.75 22.5V78.75C78.75 79.7446 78.3549 80.6984 77.6517 81.4017C76.9484 82.1049 75.9946 82.5 75 82.5H15C14.0054 82.5 13.0516 82.1049 12.3483 81.4017C11.6451 80.6984 11.25 79.7446 11.25 78.75V22.5L21.375 9C21.7243 8.53427 22.1772 8.15625 22.6979 7.8959C23.2187 7.63554 23.7928 7.5 24.375 7.5ZM69.375 22.5L63.75 15H26.25L20.625 22.5H69.375ZM33.75 37.5H26.25V45C26.25 49.9728 28.2254 54.7419 31.7417 58.2583C35.2581 61.7746 40.0272 63.75 45 63.75C49.9728 63.75 54.7419 61.7746 58.2583 58.2583C61.7746 54.7419 63.75 49.9728 63.75 45V37.5H56.25V45C56.25 47.9837 55.0647 50.8452 52.955 52.955C50.8452 55.0647 47.9837 56.25 45 56.25C42.0163 56.25 39.1548 55.0647 37.045 52.955C34.9353 50.8452 33.75 47.9837 33.75 45V37.5Z" fill="#03AC0E"/>
<path d="M24.448 96.768L21.52 108H18.208L16.416 100.608L14.56 108H11.248L8.4 96.768H11.328L12.944 104.944L14.944 96.768H17.952L19.872 104.944L21.504 96.768H24.448ZM29.8841 108.128C29.0095 108.128 28.2201 107.941 27.5161 107.568C26.8228 107.195 26.2735 106.661 25.8681 105.968C25.4735 105.275 25.2761 104.464 25.2761 103.536C25.2761 102.619 25.4788 101.813 25.8841 101.12C26.2895 100.416 26.8441 99.8773 27.5481 99.504C28.2521 99.1307 29.0415 98.944 29.9161 98.944C30.7908 98.944 31.5801 99.1307 32.2841 99.504C32.9881 99.8773 33.5428 100.416 33.9481 101.12C34.3535 101.813 34.5561 102.619 34.5561 103.536C34.5561 104.453 34.3481 105.264 33.9321 105.968C33.5268 106.661 32.9668 107.195 32.2521 107.568C31.5481 107.941 30.7588 108.128 29.8841 108.128ZM29.8841 105.76C30.4068 105.76 30.8495 105.568 31.2121 105.184C31.5855 104.8 31.7721 104.251 31.7721 103.536C31.7721 102.821 31.5908 102.272 31.2281 101.888C30.8761 101.504 30.4388 101.312 29.9161 101.312C29.3828 101.312 28.9401 101.504 28.5881 101.888C28.2361 102.261 28.0601 102.811 28.0601 103.536C28.0601 104.251 28.2308 104.8 28.5721 105.184C28.9241 105.568 29.3615 105.76 29.8841 105.76ZM37.3836 98.144C36.9036 98.144 36.509 98.0053 36.1996 97.728C35.901 97.44 35.7516 97.088 35.7516 96.672C35.7516 96.2453 35.901 95.8933 36.1996 95.616C36.509 95.328 36.9036 95.184 37.3836 95.184C37.853 95.184 38.237 95.328 38.5356 95.616C38.845 95.8933 38.9996 96.2453 38.9996 96.672C38.9996 97.088 38.845 97.44 38.5356 97.728C38.237 98.0053 37.853 98.144 37.3836 98.144ZM38.7436 99.072V108H36.0076V99.072H38.7436ZM44.7904 108.112C43.969 108.112 43.233 107.979 42.5824 107.712C41.9317 107.445 41.409 107.051 41.0144 106.528C40.6304 106.005 40.4277 105.376 40.4064 104.64H43.3184C43.361 105.056 43.505 105.376 43.7504 105.6C43.9957 105.813 44.3157 105.92 44.7104 105.92C45.1157 105.92 45.4357 105.829 45.6704 105.648C45.905 105.456 46.0224 105.195 46.0224 104.864C46.0224 104.587 45.9264 104.357 45.7344 104.176C45.553 103.995 45.3237 103.845 45.0464 103.728C44.7797 103.611 44.3957 103.477 43.8944 103.328C43.169 103.104 42.577 102.88 42.1184 102.656C41.6597 102.432 41.265 102.101 40.9344 101.664C40.6037 101.227 40.4384 100.656 40.4384 99.952C40.4384 98.9067 40.817 98.0907 41.5744 97.504C42.3317 96.9067 43.3184 96.608 44.5344 96.608C45.7717 96.608 46.769 96.9067 47.5264 97.504C48.2837 98.0907 48.689 98.912 48.7424 99.968H45.7824C45.761 99.6053 45.6277 99.3227 45.3824 99.12C45.137 98.9067 44.8224 98.8 44.4384 98.8C44.1077 98.8 43.841 98.8907 43.6384 99.072C43.4357 99.2427 43.3344 99.4933 43.3344 99.824C43.3344 100.187 43.505 100.469 43.8464 100.672C44.1877 100.875 44.721 101.093 45.4464 101.328C46.1717 101.573 46.7584 101.808 47.2064 102.032C47.665 102.256 48.0597 102.581 48.3904 103.008C48.721 103.435 48.8864 103.984 48.8864 104.656C48.8864 105.296 48.721 105.877 48.3904 106.4C48.0704 106.923 47.601 107.339 46.9824 107.648C46.3637 107.957 45.633 108.112 44.7904 108.112ZM56.0581 98.976C57.0821 98.976 57.9035 99.3173 58.5221 100C59.1408 100.672 59.4501 101.6 59.4501 102.784V108H56.7301V103.152C56.7301 102.555 56.5755 102.091 56.2661 101.76C55.9568 101.429 55.5408 101.264 55.0181 101.264C54.4955 101.264 54.0795 101.429 53.7701 101.76C53.4608 102.091 53.3061 102.555 53.3061 103.152V108H50.5701V96.16H53.3061V100.272C53.5835 99.8773 53.9621 99.5627 54.4421 99.328C54.9221 99.0933 55.4608 98.976 56.0581 98.976ZM65.4154 108.128C64.5407 108.128 63.7514 107.941 63.0474 107.568C62.354 107.195 61.8047 106.661 61.3994 105.968C61.0047 105.275 60.8074 104.464 60.8074 103.536C60.8074 102.619 61.01 101.813 61.4154 101.12C61.8207 100.416 62.3754 99.8773 63.0794 99.504C63.7834 99.1307 64.5727 98.944 65.4474 98.944C66.322 98.944 67.1114 99.1307 67.8154 99.504C68.5194 99.8773 69.074 100.416 69.4794 101.12C69.8847 101.813 70.0874 102.619 70.0874 103.536C70.0874 104.453 69.8794 105.264 69.4634 105.968C69.058 106.661 68.498 107.195 67.7834 107.568C67.0794 107.941 66.29 108.128 65.4154 108.128ZM65.4154 105.76C65.938 105.76 66.3807 105.568 66.7434 105.184C67.1167 104.8 67.3034 104.251 67.3034 103.536C67.3034 102.821 67.122 102.272 66.7594 101.888C66.4074 101.504 65.97 101.312 65.4474 101.312C64.914 101.312 64.4714 101.504 64.1194 101.888C63.7674 102.261 63.5914 102.811 63.5914 103.536C63.5914 104.251 63.762 104.8 64.1034 105.184C64.4554 105.568 64.8927 105.76 65.4154 105.76ZM74.2749 100.336C74.5415 99.92 74.9095 99.584 75.3789 99.328C75.8482 99.072 76.3975 98.944 77.0269 98.944C77.7629 98.944 78.4295 99.1307 79.0269 99.504C79.6242 99.8773 80.0935 100.411 80.4349 101.104C80.7869 101.797 80.9629 102.603 80.9629 103.52C80.9629 104.437 80.7869 105.248 80.4349 105.952C80.0935 106.645 79.6242 107.184 79.0269 107.568C78.4295 107.941 77.7629 108.128 77.0269 108.128C76.4082 108.128 75.8589 108 75.3789 107.744C74.9095 107.488 74.5415 107.157 74.2749 106.752V112.256H71.5389V99.072H74.2749V100.336ZM78.1789 103.52C78.1789 102.837 77.9869 102.304 77.6029 101.92C77.2295 101.525 76.7655 101.328 76.2109 101.328C75.6669 101.328 75.2029 101.525 74.8189 101.92C74.4455 102.315 74.2589 102.853 74.2589 103.536C74.2589 104.219 74.4455 104.757 74.8189 105.152C75.2029 105.547 75.6669 105.744 76.2109 105.744C76.7549 105.744 77.2189 105.547 77.6029 105.152C77.9869 104.747 78.1789 104.203 78.1789 103.52Z" fill="#03AC0E"/>
</svg>
