<svg width="16" height="11" viewBox="0 0 16 11" fill="none" xmlns="http://www.w3.org/2000/svg">
<path d="M8.00286 10.9671C7.96172 10.9669 7.92102 10.9585 7.8831 10.9426C7.84518 10.9266 7.81078 10.9033 7.78186 10.8741L5.78186 8.85808C5.75137 8.82813 5.72734 8.79226 5.71125 8.75268C5.69515 8.7131 5.68733 8.67063 5.68826 8.62791C5.6892 8.58519 5.69888 8.54312 5.71669 8.50428C5.73451 8.46544 5.76009 8.43065 5.79186 8.40208C6.4095 7.87956 7.19234 7.59285 8.00136 7.59285C8.81037 7.59285 9.59321 7.87956 10.2109 8.40208C10.2421 8.43091 10.2671 8.46585 10.2843 8.50472C10.3015 8.54359 10.3105 8.58557 10.3109 8.62808C10.3116 8.67078 10.3037 8.7132 10.2875 8.75274C10.2713 8.79227 10.2473 8.82811 10.2169 8.85808L8.21686 10.8741C8.16048 10.9319 8.08363 10.9653 8.00286 10.9671ZM11.5109 7.42908C11.4313 7.42906 11.3547 7.39866 11.2969 7.34408C10.3953 6.52614 9.22164 6.07305 8.00436 6.07305C6.78708 6.07305 5.61338 6.52614 4.71186 7.34408C4.65397 7.39866 4.57742 7.42906 4.49786 7.42908C4.45698 7.42926 4.41648 7.42132 4.37871 7.40569C4.34094 7.39007 4.30666 7.36708 4.27786 7.33808L3.12386 6.17108C3.09341 6.14111 3.06923 6.10539 3.05273 6.06599C3.03622 6.02659 3.02772 5.98429 3.02772 5.94158C3.02772 5.89886 3.03622 5.85657 3.05273 5.81716C3.06923 5.77776 3.09341 5.74204 3.12386 5.71208C4.44843 4.47961 6.19058 3.79446 7.99986 3.79446C9.80913 3.79446 11.5513 4.47961 12.8759 5.71208C12.9069 5.74166 12.9318 5.77715 12.949 5.81648C12.9662 5.85581 12.9753 5.89817 12.9759 5.94108C12.9761 6.02715 12.9423 6.10982 12.8819 6.17108L11.7299 7.33808C11.7011 7.36692 11.667 7.38981 11.6294 7.40542C11.5919 7.42104 11.5516 7.42908 11.5109 7.42908ZM14.1659 4.74408C14.1262 4.74444 14.0869 4.73693 14.0501 4.722C14.0134 4.70707 13.98 4.685 13.9519 4.65708C12.3458 3.13004 10.2145 2.2785 7.99836 2.2785C5.78225 2.2785 3.65087 3.13004 2.04486 4.65708C2.01671 4.685 1.9833 4.70707 1.94657 4.722C1.90984 4.73693 1.87051 4.74444 1.83086 4.74408C1.78998 4.74426 1.74948 4.73632 1.71171 4.72069C1.67394 4.70507 1.63966 4.68208 1.61086 4.65308L0.459858 3.48708C0.429864 3.45716 0.406067 3.42163 0.38983 3.3825C0.373592 3.34338 0.365234 3.30144 0.365234 3.25908C0.365234 3.21672 0.373592 3.17477 0.38983 3.13565C0.406067 3.09652 0.429864 3.06099 0.459858 3.03108C2.4889 1.08745 5.19011 0.00244141 7.99986 0.00244141C10.8096 0.00244141 13.5108 1.08745 15.5399 3.03108C15.5707 3.06064 15.5954 3.096 15.6126 3.13512C15.6297 3.17424 15.639 3.21636 15.6399 3.25908C15.6402 3.30158 15.6321 3.34374 15.616 3.38307C15.5998 3.42239 15.576 3.45809 15.5459 3.48808L14.3889 4.65308C14.3597 4.68249 14.325 4.70572 14.2867 4.72136C14.2483 4.737 14.2072 4.74472 14.1659 4.74408Z" fill="#333333"/>
</svg>
